# xmcd
#
# Track frame offsets: 
#        150
#        1997
#        18409
#        34502
#        49601
#        68579
#        86359
#        103367
#        114863
#        132598
#        145277
#        156885
#        172155
#
# Disc length: 2548 seconds
#
# Revision: 0
# Processed by: cddbd v1.5.2PL0 Copyright (c) Steve Scherf et al.
# Submitted via: ExactAudioCopyFreeDBPlugin 1.0
#
DISCID=a609f20d
DTITLE=Apathy - Handshakes With Snakes
DYEAR=2016
DGENRE=
TTITLE0=Intro: An Army With Me
TTITLE1=Pay Your Dues
TTITLE2=Amon RAW featuring Celph Titled and PH (Pumpkinhead)
TTITLE3=Rap Is Not Pop
TTITLE4=Don't Touch That Dial featuring Ras Kass and O.C.
TTITLE5=Charlie Brown featuring Oh No and Kappa Gamma
TTITLE6=Blow Ya Head Off featuring Marvalyss and Blacastan
TTITLE7=Attention Deficit Disorder
TTITLE8=No Such Thing featuring Split Gemz and Nutso
TTITLE9=Pieces Of Eight (Give Up The Ship)
TTITLE10=Run For Your Life featuring O.C.
TTITLE11=Moses featuring Twista and Bun B
TTITLE12=Handshakes With Snakes featuring Sick Jacken, B-Real and Mariag
TTITLE12=razia
EXTD=
EXTT0=
EXTT1=
EXTT2=
EXTT3=
EXTT4=
EXTT5=
EXTT6=
EXTT7=
EXTT8=
EXTT9=
EXTT10=
EXTT11=
EXTT12=
PLAYORDER=
